<svg xmlns="http://www.w3.org/2000/svg" xmlns:xlink="http://www.w3.org/1999/xlink" width="233.258" height="211.37" viewBox="0 0 233.258 211.37">
  <defs>
    <linearGradient id="linear-gradient" x1="0.5" x2="0.5" y2="1" gradientUnits="objectBoundingBox">
      <stop offset="0" stop-color="#091778"/>
      <stop offset="1" stop-color="#4f89e5"/>
    </linearGradient>
  </defs>
  <g id="login_logo" transform="translate(68.629 -302.428)">
    <g id="组_1015" data-name="组 1015">
      <path id="路径_371" data-name="路径 371" d="M124.692,63.951a61.636,61.636,0,1,1-61.636,61.636,61.636,61.636,0,0,1,61.636-61.636Z" transform="translate(-76.685 238.477)" fill="url(#linear-gradient)"/>
      <g id="组_444" data-name="组 444" transform="translate(-6.158 343.519)">
        <path id="路径_562" data-name="路径 562" d="M-1248.89,325.5c-.485-4.7-1.719-9.126-4.755-12.882a18.436,18.436,0,0,0-7.328-5.061,29.282,29.282,0,0,0-5.45-1.81,7.894,7.894,0,0,1-6.222-7.936,7.937,7.937,0,0,1,6.851-7.632,7.914,7.914,0,0,1,8.428,5.01,10.848,10.848,0,0,1,.543,2.6,24.387,24.387,0,0,0,4.107,11.446,14.785,14.785,0,0,0,6.547,4.9,16.811,16.811,0,0,0,6.989,1.759,18.445,18.445,0,0,0,6.225-1.638,15.843,15.843,0,0,0,9.7-10.936,30.15,30.15,0,0,0,1.277-5.962,7.854,7.854,0,0,1,7.763-7.238,7.894,7.894,0,0,1,7.939,7.058,8.023,8.023,0,0,1-6.446,8.671,25.1,25.1,0,0,0-10.889,5.142,17.259,17.259,0,0,0-5.132,8.343,25.093,25.093,0,0,0-1.218,6.624,9.465,9.465,0,0,1-9.007,8.91,9.5,9.5,0,0,1-9.812-7.848,6.59,6.59,0,0,1-.11-1.52Z" transform="translate(1272.643 -290.088)" fill="#fff"/>
        <path id="路径_563" data-name="路径 563" d="M-832.459,327.7a8.035,8.035,0,0,1,6.5-7.8,25.729,25.729,0,0,0,10.5-4.824,17.124,17.124,0,0,0,5.511-8.667,25.453,25.453,0,0,0,1.249-6.759,9.354,9.354,0,0,1,9.006-8.718,9.441,9.441,0,0,1,9.736,7.922,9.4,9.4,0,0,1-1.949,7.434,9.4,9.4,0,0,1-6.845,3.495,22.217,22.217,0,0,0-8.44,2.388c-4.447,2.122-6.921,5.83-8.294,10.411a32.7,32.7,0,0,0-1.267,6.109,7.848,7.848,0,0,1-8.458,6.917A7.921,7.921,0,0,1-832.459,327.7Z" transform="translate(895.916 -290.806)" fill="#fff"/>
      </g>
    </g>
    <path id="交易控制中心" d="M10.71-21.882h7.98l-4.41,4.788h1.974l3.78,3.444,4.788-3.444H26.5l-3.024-4.788h7.98L36.036-14.7H31.71L24.57-9.534,35.49.378H25.116L18.774-5.376,10.752.378H.378l13.86-9.912L8.61-14.7H4.116Zm7.182-5.586.126-.8-1.344-1.6H26.25l-.336,2.394H38.262l-.588,3.99H4.956l.588-3.99ZM53.508-15.5l-.756.8H74.928L73.206-2.394a3.065,3.065,0,0,1-1.092,2,3.229,3.229,0,0,1-2.142.777H61.656L65.394-3.57l.588-4.116L58.884.378h-7.6L61.026-10.71H58.632L48.888.378h-7.6L51.03-10.71H49.1L46.914-8.316H39.732l5.754-6.3L44.73-15.5Zm-7.9-11.97-1.386-1.6H75.348L73.584-16.3H44.058Zm7.518,3.192H66.7l.252-1.6H53.382Zm12.894,4.788.21-1.6H52.668l-.21,1.6Zm16.128-4.956.588-4.116-1.05-1.218h8.274l-.756,5.334h1.47l-.546,3.738h-1.47l-.63,4.536,1.134-.336-.63,4.368-1.092.336-1.3,9.366a3.032,3.032,0,0,1-1.113,2,3.254,3.254,0,0,1-2.121.777H76.4l2.814-3.78.84-6.006L77.7-8.736l.63-4.41,2.352-.714.966-6.846H79.422l.546-3.738Zm14.49,20.16.8-5.8H91.056l.546-3.78H112.35l-.546,3.78h-6.51l-.8,5.8h7.56L111.51-.378H89l.546-3.906Zm11.382-19.488H98.658l-.42,2.94H91.35l.882-6.048h7.434l.21-1.344-1.6-1.6h9.744l-.42,2.94h7.56l-.882,6.048H107.6ZM90.8-14.658l3.4-5.292h7.224l-3.4,5.292Zm15.414,0-1.974-5.292h7.224l1.974,5.292ZM128.562-2.73l1.89-2.352.672-4.83h-1.638L128.058.378h-6.384L123.1-9.912h-1.554L120.54-2.73h-4.788L117.306-13.9h6.384l.21-1.6h-7.14l.546-3.99h7.182l.336-2.394H122.6l-.378,1.6h-4.788l1.806-7.182h4.788l-.42,1.6h1.764l.336-2.394-1.344-1.6h7.98l-.588,3.99h6.006l-.546,3.99h-6.006l-.336,2.394h7.182l-.546,3.99h-7.224l-.21,1.6h6.384l-1.3,9.45a2.076,2.076,0,0,1-.693,1.218,1.877,1.877,0,0,1-1.281.5Zm10,2.394,3.738-3.99,3.318-23.562-1.008-1.176h7.56L148.512-3.192a3.232,3.232,0,0,1-1.092,2.037,3.131,3.131,0,0,1-2.142.819ZM144.1-25.872,141.078-4.326H136.71l3.024-21.546Zm23.142,15.54H154.476l1.932-13.524h12.726l.63-4.41-1.344-1.6H178l-.882,6.006h12.81l-1.932,13.524H175.224L173.712.378h-7.98Zm9.324-9.534-.8,5.544h4.83l.756-5.544Zm-8.778,5.544.8-5.544H163.8l-.756,5.544Zm34.566-7.014L198.828-5.544h-6.384l3.528-15.792Zm26-1.008-.882,19.11H221l.882-19.11Zm-8.862-7.434.42,9.7h-6.384l-.42-9.7ZM208.614-5.334h9.576l1.89-1.932-.966,6.72H200.8l3.612-25.662-1.386-1.554h8.736Z" transform="translate(-68.629 513.42)" fill="#e4e4e4"/>
    <g id="组_810" data-name="组 810" transform="translate(-68.629 435.853)">
      <path id="联合_2" data-name="联合 2" d="M31.646,28.726q-2.164-1.555-1.4-4.781L33.081,11.8a7.937,7.937,0,0,1,3.911-4.238A14.2,14.2,0,0,1,42.724,5.94h.58a9.057,9.057,0,0,1,5.173,1.452,3.767,3.767,0,0,1,1.466,4.4L47.107,23.939A6.878,6.878,0,0,1,43.472,28.5a14.023,14.023,0,0,1-6.036,1.78h-.845a8.629,8.629,0,0,1-4.945-1.554Zm3.322-12.195L39.851,18.3,33.9,26.2l10.871-7.127-4.552-1.7,5.957-7.9ZM71.019,28.757q-1.309-1.489-.726-4.556L73.2,11.775a.11.11,0,0,0,0-.081.17.17,0,0,1,0-.082l.01-.042a.632.632,0,0,0,0-.159,7.137,7.137,0,0,1,2.632-4.359,6.547,6.547,0,0,1,3.85-1.412,4.565,4.565,0,0,1,.61.039l.6.081a5.024,5.024,0,0,1,2.012.945A3.714,3.714,0,0,1,84.2,8.5L86.17.068H92.8L85.873,29.681H79.234l.471-2.015a6.81,6.81,0,0,1-1.971,1.613,7.409,7.409,0,0,1-2.179.811,5.643,5.643,0,0,1-.648.116,4.651,4.651,0,0,1-.627.042h-.068A4.154,4.154,0,0,1,71.019,28.757Zm9.705-17.449a2.416,2.416,0,0,0-.774,1.313l-2.643,11.3a1.836,1.836,0,0,0,.058,1.272.95.95,0,0,0,.668.545h.133a1.55,1.55,0,0,0,.249-.02,1.191,1.191,0,0,0,.212-.061,3.238,3.238,0,0,0,1.262-.847,3.316,3.316,0,0,0,.866-1.613l.092-.406L83.162,12.9a2.312,2.312,0,0,0-.034-1.471,1.1,1.1,0,0,0-.709-.667.836.836,0,0,0-.16-.059.752.752,0,0,0-.17-.02h-.225a2.619,2.619,0,0,0-1.14.625ZM97.86,30.24q-4.506-.239-6.2-1.871A4.794,4.794,0,0,1,90.4,23.91l2.841-12.143a6.486,6.486,0,0,1,3.083-4.1,12.959,12.959,0,0,1,5.139-1.92,4.39,4.39,0,0,1,.733-.1c.235-.013.474-.02.713-.02a8.02,8.02,0,0,1,5.074,1.288,5.455,5.455,0,0,1,1.971,2.824,6.431,6.431,0,0,1,.147,1.35,5.339,5.339,0,0,1-.133,1.231l-1.545,6.616H98.5L97.345,23.9a1.887,1.887,0,0,0,.136,1.6,1.178,1.178,0,0,0,.968.5h.218a2.332,2.332,0,0,0,1.125-.542,2.244,2.244,0,0,0,.76-1.275l.8-3.431H108l-.921,3.959a6.33,6.33,0,0,1-3.185,3.956,11.494,11.494,0,0,1-5.811,1.578C98.008,30.242,97.934,30.242,97.86,30.24Zm3.062-19.628a2.032,2.032,0,0,0-.73,1.149l-.607,2.581h3.277l.6-2.581a1.4,1.4,0,0,0-.116-1.113,1.246,1.246,0,0,0-.733-.542.687.687,0,0,1-.174-.02.728.728,0,0,0-.174-.02h-.222a2.375,2.375,0,0,0-1.121.546Zm60,19.58h-.331a1.82,1.82,0,0,1-.324-.04A4.762,4.762,0,0,1,157.3,28.92q-1.223-1.1-.44-4.456a1.667,1.667,0,0,0,.041-.263,1.757,1.757,0,0,1,.037-.262,1.157,1.157,0,0,0,.034-.239,1.137,1.137,0,0,1,.038-.243,8.809,8.809,0,0,1,2.292-4.42,12.355,12.355,0,0,1,3.376-2.4,11.587,11.587,0,0,1,2-.788c.627-.175,1.149-.314,1.558-.423a7.465,7.465,0,0,0,2.237-.947,5.362,5.362,0,0,0,1.316-1.194c.1-.188.2-.361.276-.522a2.068,2.068,0,0,0,.181-.484,1.776,1.776,0,0,0-.232-1.453,1.323,1.323,0,0,0-1.177-.645,2.729,2.729,0,0,0-1.48.461,2.508,2.508,0,0,0-1,1.636l-.341,1.453h-6.329c.078-.341.16-.692.242-1.041a6.71,6.71,0,0,1,.334-1.05,8.983,8.983,0,0,1,2.714-3.853q2.005-1.754,7.178-1.921,4.737,0,6.046,1.873a5.433,5.433,0,0,1,.685,4.539l-4.055,17.348h-6.643l.341-1.45a12.874,12.874,0,0,1-2.442,1.45,7.754,7.754,0,0,1-2.922.573,2.152,2.152,0,0,1-.242-.007Zm4.928-10.669a3.2,3.2,0,0,0-1.293,1.755l-.672,2.866a1.92,1.92,0,0,0,.126,1.452,1.345,1.345,0,0,0,.88.686.35.35,0,0,0,.147.04h.287a1.946,1.946,0,0,0,.972-.385,1.688,1.688,0,0,0,.655-.908l1.637-6.98a11.079,11.079,0,0,0-2.738,1.474Zm11.86,9.166q-1.31-1.489-.726-4.556L179.9,11.71a.169.169,0,0,0,0-.081.1.1,0,0,1,0-.079l.01-.041a.836.836,0,0,0-.007-.16,7.124,7.124,0,0,1,2.633-4.358,6.563,6.563,0,0,1,3.85-1.415,4.368,4.368,0,0,1,.61.042l.6.077a5.093,5.093,0,0,1,2.015.948,3.718,3.718,0,0,1,1.282,1.8L192.862.006,199.495,0l-6.929,29.617h-6.639L186.4,27.6a6.836,6.836,0,0,1-1.968,1.613,7.463,7.463,0,0,1-2.182.811,4.961,4.961,0,0,1-.648.116,4.656,4.656,0,0,1-.627.042H180.9a4.149,4.149,0,0,1-3.189-1.493Zm9.7-17.446a2.4,2.4,0,0,0-.771,1.313L184,23.85a1.828,1.828,0,0,0,.058,1.276.955.955,0,0,0,.668.546h.133a1.588,1.588,0,0,0,.249-.021,1.04,1.04,0,0,0,.211-.062,3.268,3.268,0,0,0,1.262-.85,3.306,3.306,0,0,0,.863-1.612l.1-.4,2.312-9.889a2.319,2.319,0,0,0-.031-1.474,1.1,1.1,0,0,0-.709-.665.725.725,0,0,0-.16-.061.782.782,0,0,0-.174-.02h-.222a2.657,2.657,0,0,0-1.147.625Zm17.15,18.926q-4.5-.234-6.2-1.872A4.775,4.775,0,0,1,197.1,23.84l2.843-12.14a6.482,6.482,0,0,1,3.079-4.1,12.988,12.988,0,0,1,5.142-1.92,5.311,5.311,0,0,1,.73-.1q.358-.02.716-.02a8.019,8.019,0,0,1,5.074,1.289,5.483,5.483,0,0,1,1.971,2.823,6.212,6.212,0,0,1,.147,1.35,5.526,5.526,0,0,1-.13,1.231l-1.548,6.616H205.21l-1.159,4.962a1.888,1.888,0,0,0,.136,1.6,1.176,1.176,0,0,0,.965.5h.222a2.376,2.376,0,0,0,1.125-.546,2.2,2.2,0,0,0,.76-1.274l.8-3.43H214.7l-.921,3.961a6.33,6.33,0,0,1-3.182,3.952,11.506,11.506,0,0,1-5.814,1.579l-.221,0Zm3.066-19.629a2.083,2.083,0,0,0-.736,1.153l-.6,2.581h3.274l.6-2.581a1.4,1.4,0,0,0-.116-1.113,1.248,1.248,0,0,0-.737-.546.564.564,0,0,1-.171-.019.721.721,0,0,0-.174-.017h-.222a2.344,2.344,0,0,0-1.116.542ZM0,29.722,1.149.4H9.074L6.711,21.654,14.517.389h7.038L18.8,21.65,26.6.385h7.659L21.334,29.718H12.7l2.022-16.78L8.276,29.722Zm141.758-.01L147.252,6.23H153.9l-.811,3.47a1.361,1.361,0,0,0,.116-.1.819.819,0,0,1,.116-.1c.239-.269.464-.532.668-.788s.4-.491.566-.706a7.675,7.675,0,0,1,1.391-1.334,3.166,3.166,0,0,1,1.913-.526,1.759,1.759,0,0,1,.263.021,2.308,2.308,0,0,0,.3.02h.215a.4.4,0,0,0,.191.038h.2l-1.77,7.584h-1.9a2.968,2.968,0,0,0-3.594,2.864l-3.045,13.034ZM48.945,29.7,54.439,6.22h6.95l-.668,2.866A9.591,9.591,0,0,1,63.063,7a7.8,7.8,0,0,1,2.3-.951,3.935,3.935,0,0,1,.621-.1c.194-.013.382-.02.559-.02A4.258,4.258,0,0,1,69.769,7.28a3.353,3.353,0,0,1,.836,3.246L66.122,29.692H59.169L62.9,13.8a1.794,1.794,0,0,0-.123-1.371,1.494,1.494,0,0,0-.811-.684.782.782,0,0,1-.174-.021.731.731,0,0,0-.171-.02h-.109a.215.215,0,0,0-.119.042,1.91,1.91,0,0,0-1.023.606,2.94,2.94,0,0,0-.75,1.45L55.9,29.7Zm60.335-.03,5.494-23.482h6.643l-.812,3.472a1.317,1.317,0,0,0,.116-.1.66.66,0,0,1,.116-.1c.239-.267.46-.529.668-.785s.4-.49.563-.707a7.849,7.849,0,0,1,1.391-1.333,3.185,3.185,0,0,1,1.913-.525,1.5,1.5,0,0,1,.263.021,2.4,2.4,0,0,0,.307.019h.222a.441.441,0,0,0,.188.042h.2l-1.777,7.583h-1.9a4.089,4.089,0,0,0-2.455.566,4.065,4.065,0,0,0-1.136,2.3l-3.049,13.033Zm19.063-.027,5.494-23.482H129.1L130.471.313H147.29l-1.367,5.852h-4.737l-5.494,23.479Zm87.63-.045,5.49-23.482h6.656l-.811,3.472a1.038,1.038,0,0,0,.116-.1,1.149,1.149,0,0,1,.116-.1c.239-.27.464-.532.672-.788s.392-.491.563-.71a7.979,7.979,0,0,1,1.391-1.33,3.182,3.182,0,0,1,1.916-.526,1.8,1.8,0,0,1,.263.021,2.3,2.3,0,0,0,.3.02h.222a.444.444,0,0,0,.191.041h.2L231.485,13.7h-1.916a2.963,2.963,0,0,0-3.594,2.864L222.926,29.6Z" fill="#3b57bc"/>
    </g>
  </g>
</svg>
